<svg xmlns="http://www.w3.org/2000/svg" width="91.488" height="80.581" viewBox="0 0 91.488 80.581"><defs><style>.a{fill:#fff;}.b{fill:#5bbd81;}.c{fill:#d0d0d0;}.d{fill:#53c0eb;}.e{fill:#ff7900;}</style></defs><g transform="translate(-151.007 -393.237)"><g transform="translate(151.007 393.237)"><g transform="translate(39.593 0)"><rect width="43.201" height="80.581" rx="5" transform="translate(4.594)"/><rect class="a" width="51.895" height="10.199" rx="4" transform="translate(0 10.013)"/><circle class="b" cx="1.847" cy="1.847" r="1.847" transform="translate(41.155 13.462)"/><circle class="b" cx="1.234" cy="1.234" r="1.234" transform="translate(33.138 14.075)"/><rect class="a" width="51.895" height="10.199" rx="4" transform="translate(0 26.188)"/><circle class="c" cx="1.847" cy="1.847" r="1.847" transform="translate(41.155 29.637)"/><circle class="b" cx="1.234" cy="1.234" r="1.234" transform="translate(33.138 30.25)"/><rect class="a" width="51.895" height="10.199" rx="4" transform="translate(0 42.363)"/><circle class="b" cx="1.847" cy="1.847" r="1.847" transform="translate(41.155 45.812)"/><circle class="b" cx="1.847" cy="1.847" r="1.847" transform="translate(24.618 72.176)"/><circle class="c" cx="1.234" cy="1.234" r="1.234" transform="translate(33.138 46.425)"/></g><g transform="translate(0 20.212)"><rect class="d" width="33.624" height="60.37" rx="5" transform="translate(0 0)"/><circle class="e" cx="1.847" cy="1.847" r="1.847" transform="translate(14.965 51.964)"/><g transform="translate(1.134 8.154)"><path class="a" d="M426.327,588.291H406.682a1.271,1.271,0,0,1,0-2.542h19.645a1.271,1.271,0,1,1,0,2.542Z" transform="translate(-405.411 -585.749)"/></g><g transform="translate(25.254 8.154)"><path class="a" d="M477.8,588.291H473.1a1.271,1.271,0,1,1,0-2.542H477.8a1.271,1.271,0,1,1,0,2.542Z" transform="translate(-471.831 -585.749)"/></g><g transform="translate(1.134 13.121)"><path class="a" d="M426.327,601.969H406.682a1.271,1.271,0,0,1,0-2.542h19.645a1.271,1.271,0,1,1,0,2.542Z" transform="translate(-405.411 -599.427)"/></g><g transform="translate(25.254 13.121)"><path class="a" d="M477.8,601.969H473.1a1.271,1.271,0,1,1,0-2.542H477.8a1.271,1.271,0,1,1,0,2.542Z" transform="translate(-471.831 -599.427)"/></g><g transform="translate(1.134 18.088)"><path class="a" d="M426.327,615.647H406.682a1.271,1.271,0,0,1,0-2.542h19.645a1.271,1.271,0,1,1,0,2.542Z" transform="translate(-405.411 -613.105)"/></g><g transform="translate(25.254 18.088)"><path class="a" d="M477.8,615.647H473.1a1.271,1.271,0,1,1,0-2.542H477.8a1.271,1.271,0,1,1,0,2.542Z" transform="translate(-471.831 -613.105)"/></g><g transform="translate(1.134 23.055)"><path class="a" d="M426.327,629.325H406.682a1.271,1.271,0,0,1,0-2.542h19.645a1.271,1.271,0,1,1,0,2.542Z" transform="translate(-405.411 -626.783)"/></g><g transform="translate(25.254 23.055)"><path class="a" d="M477.8,629.325H473.1a1.271,1.271,0,1,1,0-2.542H477.8a1.271,1.271,0,1,1,0,2.542Z" transform="translate(-471.831 -626.783)"/></g><g transform="translate(1.134 28.022)"><path class="a" d="M426.327,643H406.682a1.271,1.271,0,0,1,0-2.542h19.645a1.271,1.271,0,1,1,0,2.542Z" transform="translate(-405.411 -640.462)"/></g><g transform="translate(25.254 28.022)"><path class="a" d="M477.8,643H473.1a1.271,1.271,0,1,1,0-2.542H477.8a1.271,1.271,0,1,1,0,2.542Z" transform="translate(-471.831 -640.462)"/></g><g transform="translate(1.134 32.989)"><path class="a" d="M426.327,656.682H406.682a1.271,1.271,0,0,1,0-2.542h19.645a1.271,1.271,0,1,1,0,2.542Z" transform="translate(-405.411 -654.14)"/></g><g transform="translate(25.254 32.989)"><path class="a" d="M477.8,656.682H473.1a1.271,1.271,0,1,1,0-2.542H477.8a1.271,1.271,0,1,1,0,2.542Z" transform="translate(-471.831 -654.14)"/></g><g transform="translate(1.134 37.957)"><path class="a" d="M426.327,670.36H406.682a1.271,1.271,0,0,1,0-2.542h19.645a1.271,1.271,0,1,1,0,2.542Z" transform="translate(-405.411 -667.818)"/></g><g transform="translate(25.254 37.957)"><path class="a" d="M477.8,670.36H473.1a1.271,1.271,0,1,1,0-2.542H477.8a1.271,1.271,0,1,1,0,2.542Z" transform="translate(-471.831 -667.818)"/></g><g transform="translate(1.134 42.924)"><path class="a" d="M426.327,684.038H406.682a1.271,1.271,0,0,1,0-2.542h19.645a1.271,1.271,0,1,1,0,2.542Z" transform="translate(-405.411 -681.496)"/></g><g transform="translate(25.254 42.924)"><path class="a" d="M477.8,684.038H473.1a1.271,1.271,0,1,1,0-2.542H477.8a1.271,1.271,0,1,1,0,2.542Z" transform="translate(-471.831 -681.496)"/></g></g></g></g></svg>