<svg xmlns="http://www.w3.org/2000/svg" width="24" height="24" viewBox="0 0 24 24"><defs><style>.a{fill-rule:evenodd;}</style></defs><path class="a" d="M168,460c0-2.554,5.3-4,12-4s12,1.446,12,4v16c0,2.554-5.3,4-12,4s-12-1.446-12-4Zm12,2c5.452,0,10-1.24,10-2s-4.548-2-10-2-10,1.24-10,2S174.548,462,180,462Zm10,.373h0c-2.138,1.057-5.794,1.627-10,1.627s-7.862-.57-10-1.627V468c0,.76,4.548,2,10,2s10-1.24,10-2Zm0,8h0c-2.138,1.057-5.794,1.627-10,1.627s-7.862-.57-10-1.627V476c0,.76,4.548,2,10,2s10-1.24,10-2ZM173,467a1,1,0,1,1,1-1A1,1,0,0,1,173,467Zm0,8a1,1,0,1,1,1-1A1,1,0,0,1,173,475Z" transform="translate(-168 -456)"/></svg>