<svg xmlns="http://www.w3.org/2000/svg" width="36" height="36" viewBox="0 0 36 36"><defs><style>.a{fill:#ff7900;}.b{fill:#fff;}</style></defs><g transform="translate(-245.945 -122.64)"><path class="a" d="M281.945,158.64h-36v-36h36Z" transform="translate(0 0)"/><path class="b" d="M267.39,398.284a2.644,2.644,0,1,1,2.473-2.638,2.394,2.394,0,0,1-2.473,2.638m0-4.164c-.983,0-1.163.886-1.163,1.526s.18,1.528,1.163,1.528,1.163-.888,1.163-1.528-.18-1.526-1.163-1.526" transform="translate(-17.024 -242.541)"/><path class="b" d="M321.9,393.392h1.252v.588a1.941,1.941,0,0,1,1.378-.691,1.405,1.405,0,0,1,.171.007v1.236h-.064c-.572,0-1.2.089-1.4.534v3.325H321.9v-5Z" transform="translate(-68.145 -242.794)"/><path class="b" d="M355.808,397.932a2.945,2.945,0,0,1-1.653.5,1.387,1.387,0,0,1-1.486-1.454c0-1.12,1.029-1.711,3.149-1.95v-.279c0-.363-.276-.576-.785-.576a1.5,1.5,0,0,0-1.221.576l-.888-.506a2.442,2.442,0,0,1,2.129-.978c1.3,0,2.037.565,2.037,1.484,0,0,0,3.615,0,3.623h-1.166l-.117-.438Zm-1.843-1.053a.6.6,0,0,0,.593.651,1.829,1.829,0,0,0,1.219-.527v-1.184c-1.229.152-1.812.469-1.812,1.06" transform="translate(-95.743 -242.769)"/><path class="b" d="M405.883,393.441l1.09-.15.12.593a2.8,2.8,0,0,1,1.716-.689,1.415,1.415,0,0,1,1.56,1.627v3.48h-1.316V395.05c0-.612-.159-.888-.635-.888a1.937,1.937,0,0,0-1.233.555V398.3h-1.3v-4.862Z" transform="translate(-143.482 -242.709)"/><path class="b" d="M460.692,397.254c1-.007,1.083-1.023,1.083-1.684,0-.785-.382-1.418-1.092-1.418-.473,0-1,.345-1,1.472,0,.615.044,1.639,1.01,1.63m2.347-3.942v4.734c0,.834-.066,2.213-2.446,2.225-.983.007-1.9-.387-2.077-1.245l1.3-.209c.054.246.206.49.942.49.682,0,1.01-.326,1.01-1.107v-.582l-.017-.017a1.311,1.311,0,0,1-1.29.729c-1.166,0-2.084-.809-2.084-2.5,0-1.672.947-2.609,2.009-2.61,1,0,1.367.453,1.454.692l-.017,0,.11-.6Z" transform="translate(-190.571 -242.731)"/><path class="b" d="M513.92,398.4c-1.473,0-2.352-.949-2.352-2.593,0-1.663.889-2.61,2.331-2.61s2.3.919,2.3,2.544c0,.087-.01.173-.01.258H512.86c.009.949.4,1.426,1.177,1.426a1.279,1.279,0,0,0,1.135-.64l.962.533a2.4,2.4,0,0,1-2.215,1.081m.987-3.254a.954.954,0,0,0-1.008-1.062c-.595,0-.966.385-1.018,1.062Z" transform="translate(-238.283 -242.707)"/><path class="b" d="M552.033,375.81l-.485,1.254-.493-1.254h-.422v1.653h.274v-1.379h.007l.542,1.379h.174l.539-1.379h.009v1.379h.272V375.81Zm-3.043,0v.22h.516v1.433h.274V376.03h.518v-.22Z" transform="translate(-271.864 -227.127)"/></g></svg>