<svg xmlns="http://www.w3.org/2000/svg" width="16.995" height="16.995" viewBox="0 0 16.995 16.995"><defs><style>.a{fill:#ff7900;fill-rule:evenodd;}</style></defs><g transform="translate(-14.645 -14.645)"><g transform="translate(14.644 14.645)"><path class="a" d="M12.017,1.442,10.575,0,6.009,4.567,1.442,0,0,1.442,4.567,6.009,0,10.575l1.442,1.442L6.009,7.451l4.567,4.567,1.442-1.442L7.451,6.009Z" transform="translate(8.498 0) rotate(45)"/></g><g transform="translate(14.644 14.645)"><path class="a" d="M12.017,1.442,10.575,0,6.009,4.567,1.442,0,0,1.442,4.567,6.009,0,10.575l1.442,1.442L6.009,7.451l4.567,4.567,1.442-1.442L7.451,6.009Z" transform="translate(8.498 0) rotate(45)"/></g></g></svg>